<?xml version="1.0" encoding="UTF-8" standalone="no"?>
<svg
   xmlns:dc="http://purl.org/dc/elements/1.1/"
   xmlns:cc="http://creativecommons.org/ns#"
   xmlns:rdf="http://www.w3.org/1999/02/22-rdf-syntax-ns#"
   xmlns:svg="http://www.w3.org/2000/svg"
   xmlns="http://www.w3.org/2000/svg"
   xmlns:sodipodi="http://sodipodi.sourceforge.net/DTD/sodipodi-0.dtd"
   xmlns:inkscape="http://www.inkscape.org/namespaces/inkscape"
   version="1.1"
   id="Capa_1"
   x="0px"
   y="0px"
   width="511.626px"
   height="511.627px"
   viewBox="0 0 511.626 511.627"
   style="enable-background:new 0 0 511.626 511.627;"
   xml:space="preserve"
   sodipodi:docname="no lined.svg"
   inkscape:version="1.0.1 (3bc2e813f5, 2020-09-07)"><metadata
   id="metadata102"><rdf:RDF><cc:Work
       rdf:about=""><dc:format>image/svg+xml</dc:format><dc:type
         rdf:resource="http://purl.org/dc/dcmitype/StillImage" /></cc:Work></rdf:RDF></metadata><defs
   id="defs100" /><sodipodi:namedview
   pagecolor="#ffffff"
   bordercolor="#666666"
   borderopacity="1"
   objecttolerance="10"
   gridtolerance="10"
   guidetolerance="10"
   inkscape:pageopacity="0"
   inkscape:pageshadow="2"
   inkscape:window-width="2560"
   inkscape:window-height="1017"
   id="namedview98"
   showgrid="false"
   inkscape:zoom="1.6164119"
   inkscape:cx="183.12114"
   inkscape:cy="305.30584"
   inkscape:window-x="1912"
   inkscape:window-y="-8"
   inkscape:window-maximized="1"
   inkscape:current-layer="Capa_1" />
<a
   id="a110"><g
     id="g65">
	<g
   id="g63">
		<path
   d="m 255.817,91.36 c -51.201,0 -98.404,12.946 -141.613,38.831 C 70.998,156.08 34.836,191.385 5.711,236.114 1.903,242.019 0,248.586 0,255.819 c 0,7.231 1.903,13.801 5.711,19.698 16.748,26.073 36.592,49.396 59.528,69.949 10.739854,1.32682 -42.769239,-51.15194 -42.823004,-93.67393 -0.02536,-20.05768 51.285393,-39.34297 54.177962,-47.06219 20.372117,-54.36579 54.046972,-45.16063 77.869302,-50.89795 6.48149,-1.56099 -5.19471,128.46134 0.85636,126.53602 C 312.41171,230.38468 334.13552,101.28002 255.817,91.36 Z M 21.080645,260.15258 c 28.931,-44.921 83.130975,-87.79781 126.717975,-110.06281 31.65224,86.07478 5.16519,-35.62107 1.00868,-2.0374 -5.13623,41.49954 26.81857,-19.0725 -8.90312,-6.74329 -8.72493,3.01138 -71.979861,36.87107 -95.95169,71.09426 -17.791505,25.39991 -11.904553,61.7218 -22.871845,47.74924 z M 265.525,155.887 c -2.662,2.667 -5.906,3.999 -9.712,3.999 -16.368,0 -30.361,5.808 -41.971,17.416 -11.613,11.615 -17.416,25.603 -17.416,41.971 0,3.811 -1.336,7.044 -3.999,9.71 -2.668,2.667 -5.902,3.999 -9.707,3.999 -3.809,0 -7.045,-1.334 -9.71,-3.999 -2.667,-2.666 -3.999,-5.903 -3.999,-9.71 0,-23.79 8.52,-44.206 25.553,-61.242 17.034,-17.034 37.447,-25.553 61.241,-25.553 3.806,0 7.043,1.336 9.713,3.999 2.662,2.664 3.996,5.901 3.996,9.707 10e-4,3.808 -1.333,7.044 -3.989,9.703 z"
   id="path59"
   sodipodi:nodetypes="cccsccsssscccssscccscscscscscc" /><path
   d="m 361.161,291.652 c 15.037,-21.796 22.56,-45.922 22.56,-72.375 0,-7.422 -0.76,-15.417 -2.286,-23.984 l -138.71015,95.68463 c 1.48492,-0.57102 -96.35396,-16.591 -91.6826,-2.09533 1.09831,3.40817 30.42533,32.72984 53.20955,40.58206 17.91175,6.173 49.41017,7.98767 52.41402,7.81392 29.20736,-1.68944 58.84098,-8.75355 59.63445,-9.12277 20.78157,-9.67014 31.61215,-17.30734 44.86073,-36.50351 z"
   id="path57"
   sodipodi:nodetypes="csccssssc" />
		
		<path
   d="M505.916,236.114c-10.853-18.08-24.603-35.594-41.255-52.534c-16.646-16.939-34.022-31.496-52.105-43.68l-17.987,31.977    c31.785,21.888,58.625,49.87,80.51,83.939c-23.024,35.782-51.723,65-86.07,87.648c-34.358,22.661-71.712,35.693-112.065,39.115    l-21.129,37.688c42.257,0,82.18-9.038,119.769-27.121c37.59-18.076,70.668-43.488,99.216-76.225    c13.322-15.421,23.695-29.219,31.121-41.401c3.806-6.476,5.708-13.046,5.708-19.702    C511.626,249.157,509.724,242.59,505.916,236.114z"
   id="path61" />
	<path
   d="m 407.79663,153.51842 c 0,-3.237 -35.54798,-10.13258 -52.20738,7.75135 -3.9401,-59.69236 -134.81498,215.67263 -42.06859,98.79095 116.87891,-64.48702 6.58488,0.88825 4.47921,-31.59625 -2.28037,25.5617 41.49012,2.01985 63.97322,-25.44238 3.32295,-4.05885 -5.31677,-25.75241 -2.5518,-28.93701 6.63355,-7.6403 15.73091,-1.93831 15.14771,-2.20808 -2.479,-1.141 9.9992,-4.61275 9.0472,-4.61275 -3.426,0 10.8418,-30.40825 8.9398,-27.36425 l -29.50458,-16.48823 -32.8392,-13.47076 -40.5296,-12.489702 C 292.36662,94.217308 272.757,91.36 255.817,91.36 c -51.201,0 -98.404,12.946 -141.613,38.831 C 70.998,156.08 34.836,191.385 5.711,236.114 1.903,242.019 0,248.586 0,255.819 c 0,7.231 1.903,13.801 5.711,19.698 16.748,26.073 36.592,49.396 59.528,69.949 19.612614,17.58175 100.02853,56.57623 141.91117,68.43411 7.09707,2.00934 -3.94384,-1.79355 0,0 3.57218,7.91843 90.86812,5.65037 97.65297,2.87527 26.70943,-21.1235 140.17655,-69.55189 144.97703,-95.57631 3.72892,-20.21529 47.06115,-73.27368 24.83223,-85.14826 -10.20405,-5.45095 -89.28003,-95.02377 -108.38337,-93.29959 -38.3218,3.45875 -20.52405,104.90025 -17.83124,103.92409 0,0 24.8178,-65.87337 29.84026,-83.80317 17.08051,-60.97608 -26.93542,26.60154 -21.95951,13.92696 23.17482,-59.03069 23.11214,-10.12463 27.80575,-23.59523 20.9439,-60.10862 -73.76323,60.98802 -68.93732,49.65061 21.80172,-51.21839 58.98106,-13.02961 55.36098,-34.05705 -2.65792,-15.43869 -117.97047,161.80937 -110.26122,139.22182 4.98164,-14.59586 58.9419,35.81813 63.69127,10.19968 8.52925,-46.00737 20.39896,-1.21364 50.55882,-100.75549 -35.37669,-60.48476 -20.4634,-27.77905 -13.00729,-25.79755 7.28475,1.93595 11.71507,-16.2925 22.11843,-24.57606 7.13727,-5.68298 21.343,3.46644 24.18867,-13.57141 z M 36.547,255.822 c 28.931,-44.921 65.19,-78.518 108.777,-100.783 -11.61,19.792 -17.417,41.206 -17.417,64.237 0,20.365 4.661,39.68 13.99,57.955 16.49757,25.33699 27.27924,34.67636 51.48514,31.27101 -4.54474,9.61433 79.59476,-0.76395 74.34451,5.01892 -1.64443,1.81126 95.93838,-189.07422 104.81104,-165.61994 2.17245,5.74274 104.21266,29.84065 114.05178,93.41924 3.33498,21.54998 -67.44191,101.84609 -70.69313,114.4474 -2.38653,9.24984 -94.26141,13.83082 -94.56619,14.67219 -4.81037,13.27964 -79.68608,13.35455 -81.84719,12.92345 C 76.122189,350.77568 60.463848,292.00565 36.547,255.822 Z m 228.978,-99.935 c -2.662,2.667 -5.906,3.999 -9.712,3.999 -16.368,0 -30.361,5.808 -41.971,17.416 -11.613,11.615 -17.416,25.603 -17.416,41.971 0,3.811 -1.336,7.044 -3.999,9.71 -2.668,2.667 -5.902,3.999 -9.707,3.999 -3.809,0 -7.045,-1.334 -9.71,-3.999 -2.667,-2.666 -3.999,-5.903 -3.999,-9.71 0,-23.79 8.52,-44.206 25.553,-61.242 17.034,-17.034 37.447,-25.553 61.241,-25.553 3.806,0 7.043,1.336 9.713,3.999 2.662,2.664 3.996,5.901 3.996,9.707 10e-4,3.808 -1.333,7.044 -3.989,9.703 z"
   id="path106"
   sodipodi:nodetypes="ccccsscsccccsccsccsccssssssssssscsscccsccssssssccscscscscsccc" /></g>
</g></a>
<g
   id="g67">
</g>
<g
   id="g69">
</g>
<g
   id="g71">
</g>
<g
   id="g73">
</g>
<g
   id="g75">
</g>
<g
   id="g77">
</g>
<g
   id="g79">
</g>
<g
   id="g81">
</g>
<g
   id="g83">
</g>
<g
   id="g85">
</g>
<g
   id="g87">
</g>
<g
   id="g89">
</g>
<g
   id="g91">
</g>
<g
   id="g93">
</g>
<g
   id="g95">
</g>
</svg>
